<svg width="16" height="16" viewBox="0 0 16 16" fill="none" xmlns="http://www.w3.org/2000/svg">
<g clip-path="url(#clip0_10_54)">
<path d="M8 0.5C12.1421 0.5 15.5 3.85786 15.5 8C15.5 12.1421 12.1421 15.5 8 15.5C3.85786 15.5 0.5 12.1421 0.5 8C0.5 3.85786 3.85786 0.5 8 0.5ZM8 1.5C4.41015 1.5 1.5 4.41015 1.5 8C1.5 11.5899 4.41015 14.5 8 14.5C11.5899 14.5 14.5 11.5899 14.5 8C14.5 4.41015 11.5899 1.5 8 1.5ZM8 7C8.55229 7 9 7.44772 9 8V11C9 11.5523 8.55229 12 8 12C7.44772 12 7 11.5523 7 11V8C7 7.44772 7.44772 7 8 7ZM8 4C8.55229 4 9 4.44772 9 5C9 5.55228 8.55229 6 8 6C7.44772 6 7 5.55228 7 5C7 4.44772 7.44772 4 8 4Z" fill="#1B539A" style="fill:#1B539A;fill:color(display-p3 0.1059 0.3255 0.6039);fill-opacity:1;"/>
</g>
<defs>
<clipPath id="clip0_10_54">
<rect width="16" height="16" fill="white" style="fill:white;fill-opacity:1;"/>
</clipPath>
</defs>
</svg>
